<?xml version="1.0" encoding="UTF-8" standalone="no"?>
<!DOCTYPE svg PUBLIC "-//W3C//DTD SVG 1.1//EN"
 "http://www.w3.org/Graphics/SVG/1.1/DTD/svg11.dtd">
<!-- Generated by graphviz version 5.0.1 (20220820.1526)
 -->
<!-- Title: G Pages: 1 -->
<svg width="160pt" height="4796pt"
 viewBox="0.00 0.00 160.47 4796.00" xmlns="http://www.w3.org/2000/svg" xmlns:xlink="http://www.w3.org/1999/xlink">
<g id="graph0" class="graph" transform="scale(1 1) rotate(0) translate(4 4792)">
<title>G</title>
<polygon fill="white" stroke="none" points="-4,4 -4,-4792 156.47,-4792 156.47,4 -4,4"/>
<!-- nodo0 -->
<g id="node1" class="node">
<title>nodo0</title>
<ellipse fill="none" stroke="black" cx="76.24" cy="-4770" rx="38.99" ry="18"/>
<text text-anchor="middle" x="76.24" y="-4766.3" font-family="Times New Roman,serif" font-size="14.00">INICIO</text>
</g>
<!-- nodo1 -->
<g id="node2" class="node">
<title>nodo1</title>
<polygon fill="none" stroke="black" points="152.71,-4716 31.06,-4716 -0.24,-4680 121.41,-4680 152.71,-4716"/>
<text text-anchor="middle" x="76.24" y="-4694.3" font-family="Times New Roman,serif" font-size="14.00">declaracion</text>
</g>
<!-- nodo0&#45;&gt;nodo1 -->
<g id="edge1" class="edge">
<title>nodo0&#45;&gt;nodo1</title>
<path fill="none" stroke="black" d="M76.24,-4751.7C76.24,-4743.98 76.24,-4734.71 76.24,-4726.11"/>
<polygon fill="black" stroke="black" points="79.74,-4726.1 76.24,-4716.1 72.74,-4726.1 79.74,-4726.1"/>
</g>
<!-- nodo2 -->
<g id="node3" class="node">
<title>nodo2</title>
<polygon fill="none" stroke="black" points="152.71,-4644 31.06,-4644 -0.24,-4608 121.41,-4608 152.71,-4644"/>
<text text-anchor="middle" x="76.24" y="-4622.3" font-family="Times New Roman,serif" font-size="14.00">declaracion</text>
</g>
<!-- nodo1&#45;&gt;nodo2 -->
<g id="edge2" class="edge">
<title>nodo1&#45;&gt;nodo2</title>
<path fill="none" stroke="black" d="M76.24,-4679.7C76.24,-4671.98 76.24,-4662.71 76.24,-4654.11"/>
<polygon fill="black" stroke="black" points="79.74,-4654.1 76.24,-4644.1 72.74,-4654.1 79.74,-4654.1"/>
</g>
<!-- nodo3 -->
<g id="node4" class="node">
<title>nodo3</title>
<polygon fill="none" stroke="black" points="152.71,-4572 31.06,-4572 -0.24,-4536 121.41,-4536 152.71,-4572"/>
<text text-anchor="middle" x="76.24" y="-4550.3" font-family="Times New Roman,serif" font-size="14.00">declaracion</text>
</g>
<!-- nodo2&#45;&gt;nodo3 -->
<g id="edge3" class="edge">
<title>nodo2&#45;&gt;nodo3</title>
<path fill="none" stroke="black" d="M76.24,-4607.7C76.24,-4599.98 76.24,-4590.71 76.24,-4582.11"/>
<polygon fill="black" stroke="black" points="79.74,-4582.1 76.24,-4572.1 72.74,-4582.1 79.74,-4582.1"/>
</g>
<!-- nodo4 -->
<g id="node5" class="node">
<title>nodo4</title>
<polygon fill="none" stroke="black" points="152.71,-4500 31.06,-4500 -0.24,-4464 121.41,-4464 152.71,-4500"/>
<text text-anchor="middle" x="76.24" y="-4478.3" font-family="Times New Roman,serif" font-size="14.00">declaracion</text>
</g>
<!-- nodo3&#45;&gt;nodo4 -->
<g id="edge4" class="edge">
<title>nodo3&#45;&gt;nodo4</title>
<path fill="none" stroke="black" d="M76.24,-4535.7C76.24,-4527.98 76.24,-4518.71 76.24,-4510.11"/>
<polygon fill="black" stroke="black" points="79.74,-4510.1 76.24,-4500.1 72.74,-4510.1 79.74,-4510.1"/>
</g>
<!-- nodo5 -->
<g id="node6" class="node">
<title>nodo5</title>
<polygon fill="none" stroke="black" points="152.71,-4428 31.06,-4428 -0.24,-4392 121.41,-4392 152.71,-4428"/>
<text text-anchor="middle" x="76.24" y="-4406.3" font-family="Times New Roman,serif" font-size="14.00">declaracion</text>
</g>
<!-- nodo4&#45;&gt;nodo5 -->
<g id="edge5" class="edge">
<title>nodo4&#45;&gt;nodo5</title>
<path fill="none" stroke="black" d="M76.24,-4463.7C76.24,-4455.98 76.24,-4446.71 76.24,-4438.11"/>
<polygon fill="black" stroke="black" points="79.74,-4438.1 76.24,-4428.1 72.74,-4438.1 79.74,-4438.1"/>
</g>
<!-- nodo6 -->
<g id="node7" class="node">
<title>nodo6</title>
<polygon fill="none" stroke="black" points="152.71,-4356 31.06,-4356 -0.24,-4320 121.41,-4320 152.71,-4356"/>
<text text-anchor="middle" x="76.24" y="-4334.3" font-family="Times New Roman,serif" font-size="14.00">declaracion</text>
</g>
<!-- nodo5&#45;&gt;nodo6 -->
<g id="edge6" class="edge">
<title>nodo5&#45;&gt;nodo6</title>
<path fill="none" stroke="black" d="M76.24,-4391.7C76.24,-4383.98 76.24,-4374.71 76.24,-4366.11"/>
<polygon fill="black" stroke="black" points="79.74,-4366.1 76.24,-4356.1 72.74,-4366.1 79.74,-4366.1"/>
</g>
<!-- nodo7 -->
<g id="node8" class="node">
<title>nodo7</title>
<polygon fill="none" stroke="black" points="152.71,-4284 31.06,-4284 -0.24,-4248 121.41,-4248 152.71,-4284"/>
<text text-anchor="middle" x="76.24" y="-4262.3" font-family="Times New Roman,serif" font-size="14.00">declaracion</text>
</g>
<!-- nodo6&#45;&gt;nodo7 -->
<g id="edge7" class="edge">
<title>nodo6&#45;&gt;nodo7</title>
<path fill="none" stroke="black" d="M76.24,-4319.7C76.24,-4311.98 76.24,-4302.71 76.24,-4294.11"/>
<polygon fill="black" stroke="black" points="79.74,-4294.1 76.24,-4284.1 72.74,-4294.1 79.74,-4294.1"/>
</g>
<!-- nodo8 -->
<g id="node9" class="node">
<title>nodo8</title>
<polygon fill="none" stroke="black" points="152.71,-4212 31.06,-4212 -0.24,-4176 121.41,-4176 152.71,-4212"/>
<text text-anchor="middle" x="76.24" y="-4190.3" font-family="Times New Roman,serif" font-size="14.00">declaracion</text>
</g>
<!-- nodo7&#45;&gt;nodo8 -->
<g id="edge8" class="edge">
<title>nodo7&#45;&gt;nodo8</title>
<path fill="none" stroke="black" d="M76.24,-4247.7C76.24,-4239.98 76.24,-4230.71 76.24,-4222.11"/>
<polygon fill="black" stroke="black" points="79.74,-4222.1 76.24,-4212.1 72.74,-4222.1 79.74,-4222.1"/>
</g>
<!-- nodo9 -->
<g id="node10" class="node">
<title>nodo9</title>
<polygon fill="none" stroke="black" points="152.71,-4140 31.06,-4140 -0.24,-4104 121.41,-4104 152.71,-4140"/>
<text text-anchor="middle" x="76.24" y="-4118.3" font-family="Times New Roman,serif" font-size="14.00">declaracion</text>
</g>
<!-- nodo8&#45;&gt;nodo9 -->
<g id="edge9" class="edge">
<title>nodo8&#45;&gt;nodo9</title>
<path fill="none" stroke="black" d="M76.24,-4175.7C76.24,-4167.98 76.24,-4158.71 76.24,-4150.11"/>
<polygon fill="black" stroke="black" points="79.74,-4150.1 76.24,-4140.1 72.74,-4150.1 79.74,-4150.1"/>
</g>
<!-- nodo10 -->
<g id="node11" class="node">
<title>nodo10</title>
<polygon fill="none" stroke="black" points="152.71,-4068 31.06,-4068 -0.24,-4032 121.41,-4032 152.71,-4068"/>
<text text-anchor="middle" x="76.24" y="-4046.3" font-family="Times New Roman,serif" font-size="14.00">declaracion</text>
</g>
<!-- nodo9&#45;&gt;nodo10 -->
<g id="edge10" class="edge">
<title>nodo9&#45;&gt;nodo10</title>
<path fill="none" stroke="black" d="M76.24,-4103.7C76.24,-4095.98 76.24,-4086.71 76.24,-4078.11"/>
<polygon fill="black" stroke="black" points="79.74,-4078.1 76.24,-4068.1 72.74,-4078.1 79.74,-4078.1"/>
</g>
<!-- nodo11 -->
<g id="node12" class="node">
<title>nodo11</title>
<polygon fill="none" stroke="black" points="152.71,-3996 31.06,-3996 -0.24,-3960 121.41,-3960 152.71,-3996"/>
<text text-anchor="middle" x="76.24" y="-3974.3" font-family="Times New Roman,serif" font-size="14.00">declaracion</text>
</g>
<!-- nodo10&#45;&gt;nodo11 -->
<g id="edge11" class="edge">
<title>nodo10&#45;&gt;nodo11</title>
<path fill="none" stroke="black" d="M76.24,-4031.7C76.24,-4023.98 76.24,-4014.71 76.24,-4006.11"/>
<polygon fill="black" stroke="black" points="79.74,-4006.1 76.24,-3996.1 72.74,-4006.1 79.74,-4006.1"/>
</g>
<!-- nodo12 -->
<g id="node13" class="node">
<title>nodo12</title>
<polygon fill="none" stroke="black" points="152.71,-3924 31.06,-3924 -0.24,-3888 121.41,-3888 152.71,-3924"/>
<text text-anchor="middle" x="76.24" y="-3902.3" font-family="Times New Roman,serif" font-size="14.00">declaracion</text>
</g>
<!-- nodo11&#45;&gt;nodo12 -->
<g id="edge12" class="edge">
<title>nodo11&#45;&gt;nodo12</title>
<path fill="none" stroke="black" d="M76.24,-3959.7C76.24,-3951.98 76.24,-3942.71 76.24,-3934.11"/>
<polygon fill="black" stroke="black" points="79.74,-3934.1 76.24,-3924.1 72.74,-3934.1 79.74,-3934.1"/>
</g>
<!-- nodo13 -->
<g id="node14" class="node">
<title>nodo13</title>
<polygon fill="none" stroke="black" points="152.71,-3852 31.06,-3852 -0.24,-3816 121.41,-3816 152.71,-3852"/>
<text text-anchor="middle" x="76.24" y="-3830.3" font-family="Times New Roman,serif" font-size="14.00">declaracion</text>
</g>
<!-- nodo12&#45;&gt;nodo13 -->
<g id="edge13" class="edge">
<title>nodo12&#45;&gt;nodo13</title>
<path fill="none" stroke="black" d="M76.24,-3887.7C76.24,-3879.98 76.24,-3870.71 76.24,-3862.11"/>
<polygon fill="black" stroke="black" points="79.74,-3862.1 76.24,-3852.1 72.74,-3862.1 79.74,-3862.1"/>
</g>
<!-- nodo14 -->
<g id="node15" class="node">
<title>nodo14</title>
<polygon fill="none" stroke="black" points="152.71,-3780 31.06,-3780 -0.24,-3744 121.41,-3744 152.71,-3780"/>
<text text-anchor="middle" x="76.24" y="-3758.3" font-family="Times New Roman,serif" font-size="14.00">declaracion</text>
</g>
<!-- nodo13&#45;&gt;nodo14 -->
<g id="edge14" class="edge">
<title>nodo13&#45;&gt;nodo14</title>
<path fill="none" stroke="black" d="M76.24,-3815.7C76.24,-3807.98 76.24,-3798.71 76.24,-3790.11"/>
<polygon fill="black" stroke="black" points="79.74,-3790.1 76.24,-3780.1 72.74,-3790.1 79.74,-3790.1"/>
</g>
<!-- nodo15 -->
<g id="node16" class="node">
<title>nodo15</title>
<polygon fill="none" stroke="black" points="152.71,-3708 31.06,-3708 -0.24,-3672 121.41,-3672 152.71,-3708"/>
<text text-anchor="middle" x="76.24" y="-3686.3" font-family="Times New Roman,serif" font-size="14.00">declaracion</text>
</g>
<!-- nodo14&#45;&gt;nodo15 -->
<g id="edge15" class="edge">
<title>nodo14&#45;&gt;nodo15</title>
<path fill="none" stroke="black" d="M76.24,-3743.7C76.24,-3735.98 76.24,-3726.71 76.24,-3718.11"/>
<polygon fill="black" stroke="black" points="79.74,-3718.1 76.24,-3708.1 72.74,-3718.1 79.74,-3718.1"/>
</g>
<!-- nodo16 -->
<g id="node17" class="node">
<title>nodo16</title>
<polygon fill="none" stroke="black" points="152.71,-3636 31.06,-3636 -0.24,-3600 121.41,-3600 152.71,-3636"/>
<text text-anchor="middle" x="76.24" y="-3614.3" font-family="Times New Roman,serif" font-size="14.00">declaracion</text>
</g>
<!-- nodo15&#45;&gt;nodo16 -->
<g id="edge16" class="edge">
<title>nodo15&#45;&gt;nodo16</title>
<path fill="none" stroke="black" d="M76.24,-3671.7C76.24,-3663.98 76.24,-3654.71 76.24,-3646.11"/>
<polygon fill="black" stroke="black" points="79.74,-3646.1 76.24,-3636.1 72.74,-3646.1 79.74,-3646.1"/>
</g>
<!-- nodo17 -->
<g id="node18" class="node">
<title>nodo17</title>
<polygon fill="none" stroke="black" points="152.71,-3564 31.06,-3564 -0.24,-3528 121.41,-3528 152.71,-3564"/>
<text text-anchor="middle" x="76.24" y="-3542.3" font-family="Times New Roman,serif" font-size="14.00">declaracion</text>
</g>
<!-- nodo16&#45;&gt;nodo17 -->
<g id="edge17" class="edge">
<title>nodo16&#45;&gt;nodo17</title>
<path fill="none" stroke="black" d="M76.24,-3599.7C76.24,-3591.98 76.24,-3582.71 76.24,-3574.11"/>
<polygon fill="black" stroke="black" points="79.74,-3574.1 76.24,-3564.1 72.74,-3574.1 79.74,-3574.1"/>
</g>
<!-- nodo18 -->
<g id="node19" class="node">
<title>nodo18</title>
<polygon fill="none" stroke="black" points="152.71,-3492 31.06,-3492 -0.24,-3456 121.41,-3456 152.71,-3492"/>
<text text-anchor="middle" x="76.24" y="-3470.3" font-family="Times New Roman,serif" font-size="14.00">declaracion</text>
</g>
<!-- nodo17&#45;&gt;nodo18 -->
<g id="edge18" class="edge">
<title>nodo17&#45;&gt;nodo18</title>
<path fill="none" stroke="black" d="M76.24,-3527.7C76.24,-3519.98 76.24,-3510.71 76.24,-3502.11"/>
<polygon fill="black" stroke="black" points="79.74,-3502.1 76.24,-3492.1 72.74,-3502.1 79.74,-3502.1"/>
</g>
<!-- nodo19 -->
<g id="node20" class="node">
<title>nodo19</title>
<polygon fill="none" stroke="black" points="152.71,-3420 31.06,-3420 -0.24,-3384 121.41,-3384 152.71,-3420"/>
<text text-anchor="middle" x="76.24" y="-3398.3" font-family="Times New Roman,serif" font-size="14.00">declaracion</text>
</g>
<!-- nodo18&#45;&gt;nodo19 -->
<g id="edge19" class="edge">
<title>nodo18&#45;&gt;nodo19</title>
<path fill="none" stroke="black" d="M76.24,-3455.7C76.24,-3447.98 76.24,-3438.71 76.24,-3430.11"/>
<polygon fill="black" stroke="black" points="79.74,-3430.1 76.24,-3420.1 72.74,-3430.1 79.74,-3430.1"/>
</g>
<!-- nodo20 -->
<g id="node21" class="node">
<title>nodo20</title>
<polygon fill="none" stroke="black" points="152.71,-3348 31.06,-3348 -0.24,-3312 121.41,-3312 152.71,-3348"/>
<text text-anchor="middle" x="76.24" y="-3326.3" font-family="Times New Roman,serif" font-size="14.00">declaracion</text>
</g>
<!-- nodo19&#45;&gt;nodo20 -->
<g id="edge20" class="edge">
<title>nodo19&#45;&gt;nodo20</title>
<path fill="none" stroke="black" d="M76.24,-3383.7C76.24,-3375.98 76.24,-3366.71 76.24,-3358.11"/>
<polygon fill="black" stroke="black" points="79.74,-3358.1 76.24,-3348.1 72.74,-3358.1 79.74,-3358.1"/>
</g>
<!-- nodo21 -->
<g id="node22" class="node">
<title>nodo21</title>
<polygon fill="none" stroke="black" points="152.71,-3276 31.06,-3276 -0.24,-3240 121.41,-3240 152.71,-3276"/>
<text text-anchor="middle" x="76.24" y="-3254.3" font-family="Times New Roman,serif" font-size="14.00">declaracion</text>
</g>
<!-- nodo20&#45;&gt;nodo21 -->
<g id="edge21" class="edge">
<title>nodo20&#45;&gt;nodo21</title>
<path fill="none" stroke="black" d="M76.24,-3311.7C76.24,-3303.98 76.24,-3294.71 76.24,-3286.11"/>
<polygon fill="black" stroke="black" points="79.74,-3286.1 76.24,-3276.1 72.74,-3286.1 79.74,-3286.1"/>
</g>
<!-- nodo22 -->
<g id="node23" class="node">
<title>nodo22</title>
<polygon fill="none" stroke="black" points="152.71,-3204 31.06,-3204 -0.24,-3168 121.41,-3168 152.71,-3204"/>
<text text-anchor="middle" x="76.24" y="-3182.3" font-family="Times New Roman,serif" font-size="14.00">declaracion</text>
</g>
<!-- nodo21&#45;&gt;nodo22 -->
<g id="edge22" class="edge">
<title>nodo21&#45;&gt;nodo22</title>
<path fill="none" stroke="black" d="M76.24,-3239.7C76.24,-3231.98 76.24,-3222.71 76.24,-3214.11"/>
<polygon fill="black" stroke="black" points="79.74,-3214.1 76.24,-3204.1 72.74,-3214.1 79.74,-3214.1"/>
</g>
<!-- nodo23 -->
<g id="node24" class="node">
<title>nodo23</title>
<polygon fill="none" stroke="black" points="152.71,-3132 31.06,-3132 -0.24,-3096 121.41,-3096 152.71,-3132"/>
<text text-anchor="middle" x="76.24" y="-3110.3" font-family="Times New Roman,serif" font-size="14.00">declaracion</text>
</g>
<!-- nodo22&#45;&gt;nodo23 -->
<g id="edge23" class="edge">
<title>nodo22&#45;&gt;nodo23</title>
<path fill="none" stroke="black" d="M76.24,-3167.7C76.24,-3159.98 76.24,-3150.71 76.24,-3142.11"/>
<polygon fill="black" stroke="black" points="79.74,-3142.1 76.24,-3132.1 72.74,-3142.1 79.74,-3142.1"/>
</g>
<!-- nodo24 -->
<g id="node25" class="node">
<title>nodo24</title>
<polygon fill="none" stroke="black" points="152.71,-3060 31.06,-3060 -0.24,-3024 121.41,-3024 152.71,-3060"/>
<text text-anchor="middle" x="76.24" y="-3038.3" font-family="Times New Roman,serif" font-size="14.00">declaracion</text>
</g>
<!-- nodo23&#45;&gt;nodo24 -->
<g id="edge24" class="edge">
<title>nodo23&#45;&gt;nodo24</title>
<path fill="none" stroke="black" d="M76.24,-3095.7C76.24,-3087.98 76.24,-3078.71 76.24,-3070.11"/>
<polygon fill="black" stroke="black" points="79.74,-3070.1 76.24,-3060.1 72.74,-3070.1 79.74,-3070.1"/>
</g>
<!-- nodo25 -->
<g id="node26" class="node">
<title>nodo25</title>
<polygon fill="none" stroke="black" points="152.71,-2988 31.06,-2988 -0.24,-2952 121.41,-2952 152.71,-2988"/>
<text text-anchor="middle" x="76.24" y="-2966.3" font-family="Times New Roman,serif" font-size="14.00">declaracion</text>
</g>
<!-- nodo24&#45;&gt;nodo25 -->
<g id="edge25" class="edge">
<title>nodo24&#45;&gt;nodo25</title>
<path fill="none" stroke="black" d="M76.24,-3023.7C76.24,-3015.98 76.24,-3006.71 76.24,-2998.11"/>
<polygon fill="black" stroke="black" points="79.74,-2998.1 76.24,-2988.1 72.74,-2998.1 79.74,-2998.1"/>
</g>
<!-- nodo26 -->
<g id="node27" class="node">
<title>nodo26</title>
<polygon fill="none" stroke="black" points="152.71,-2916 31.06,-2916 -0.24,-2880 121.41,-2880 152.71,-2916"/>
<text text-anchor="middle" x="76.24" y="-2894.3" font-family="Times New Roman,serif" font-size="14.00">declaracion</text>
</g>
<!-- nodo25&#45;&gt;nodo26 -->
<g id="edge26" class="edge">
<title>nodo25&#45;&gt;nodo26</title>
<path fill="none" stroke="black" d="M76.24,-2951.7C76.24,-2943.98 76.24,-2934.71 76.24,-2926.11"/>
<polygon fill="black" stroke="black" points="79.74,-2926.1 76.24,-2916.1 72.74,-2926.1 79.74,-2926.1"/>
</g>
<!-- nodo27 -->
<g id="node28" class="node">
<title>nodo27</title>
<polygon fill="none" stroke="black" points="152.71,-2844 31.06,-2844 -0.24,-2808 121.41,-2808 152.71,-2844"/>
<text text-anchor="middle" x="76.24" y="-2822.3" font-family="Times New Roman,serif" font-size="14.00">declaracion</text>
</g>
<!-- nodo26&#45;&gt;nodo27 -->
<g id="edge27" class="edge">
<title>nodo26&#45;&gt;nodo27</title>
<path fill="none" stroke="black" d="M76.24,-2879.7C76.24,-2871.98 76.24,-2862.71 76.24,-2854.11"/>
<polygon fill="black" stroke="black" points="79.74,-2854.1 76.24,-2844.1 72.74,-2854.1 79.74,-2854.1"/>
</g>
<!-- nodo28 -->
<g id="node29" class="node">
<title>nodo28</title>
<polygon fill="none" stroke="black" points="152.71,-2772 31.06,-2772 -0.24,-2736 121.41,-2736 152.71,-2772"/>
<text text-anchor="middle" x="76.24" y="-2750.3" font-family="Times New Roman,serif" font-size="14.00">declaracion</text>
</g>
<!-- nodo27&#45;&gt;nodo28 -->
<g id="edge28" class="edge">
<title>nodo27&#45;&gt;nodo28</title>
<path fill="none" stroke="black" d="M76.24,-2807.7C76.24,-2799.98 76.24,-2790.71 76.24,-2782.11"/>
<polygon fill="black" stroke="black" points="79.74,-2782.1 76.24,-2772.1 72.74,-2782.1 79.74,-2782.1"/>
</g>
<!-- nodo29 -->
<g id="node30" class="node">
<title>nodo29</title>
<polygon fill="none" stroke="black" points="152.71,-2700 31.06,-2700 -0.24,-2664 121.41,-2664 152.71,-2700"/>
<text text-anchor="middle" x="76.24" y="-2678.3" font-family="Times New Roman,serif" font-size="14.00">declaracion</text>
</g>
<!-- nodo28&#45;&gt;nodo29 -->
<g id="edge29" class="edge">
<title>nodo28&#45;&gt;nodo29</title>
<path fill="none" stroke="black" d="M76.24,-2735.7C76.24,-2727.98 76.24,-2718.71 76.24,-2710.11"/>
<polygon fill="black" stroke="black" points="79.74,-2710.1 76.24,-2700.1 72.74,-2710.1 79.74,-2710.1"/>
</g>
<!-- nodo30 -->
<g id="node31" class="node">
<title>nodo30</title>
<polygon fill="none" stroke="black" points="152.71,-2628 31.06,-2628 -0.24,-2592 121.41,-2592 152.71,-2628"/>
<text text-anchor="middle" x="76.24" y="-2606.3" font-family="Times New Roman,serif" font-size="14.00">declaracion</text>
</g>
<!-- nodo29&#45;&gt;nodo30 -->
<g id="edge30" class="edge">
<title>nodo29&#45;&gt;nodo30</title>
<path fill="none" stroke="black" d="M76.24,-2663.7C76.24,-2655.98 76.24,-2646.71 76.24,-2638.11"/>
<polygon fill="black" stroke="black" points="79.74,-2638.1 76.24,-2628.1 72.74,-2638.1 79.74,-2638.1"/>
</g>
<!-- nodo31 -->
<g id="node32" class="node">
<title>nodo31</title>
<polygon fill="none" stroke="black" points="152.71,-2556 31.06,-2556 -0.24,-2520 121.41,-2520 152.71,-2556"/>
<text text-anchor="middle" x="76.24" y="-2534.3" font-family="Times New Roman,serif" font-size="14.00">declaracion</text>
</g>
<!-- nodo30&#45;&gt;nodo31 -->
<g id="edge31" class="edge">
<title>nodo30&#45;&gt;nodo31</title>
<path fill="none" stroke="black" d="M76.24,-2591.7C76.24,-2583.98 76.24,-2574.71 76.24,-2566.11"/>
<polygon fill="black" stroke="black" points="79.74,-2566.1 76.24,-2556.1 72.74,-2566.1 79.74,-2566.1"/>
</g>
<!-- nodo32 -->
<g id="node33" class="node">
<title>nodo32</title>
<polygon fill="none" stroke="black" points="152.71,-2484 31.06,-2484 -0.24,-2448 121.41,-2448 152.71,-2484"/>
<text text-anchor="middle" x="76.24" y="-2462.3" font-family="Times New Roman,serif" font-size="14.00">declaracion</text>
</g>
<!-- nodo31&#45;&gt;nodo32 -->
<g id="edge32" class="edge">
<title>nodo31&#45;&gt;nodo32</title>
<path fill="none" stroke="black" d="M76.24,-2519.7C76.24,-2511.98 76.24,-2502.71 76.24,-2494.11"/>
<polygon fill="black" stroke="black" points="79.74,-2494.1 76.24,-2484.1 72.74,-2494.1 79.74,-2494.1"/>
</g>
<!-- nodo33 -->
<g id="node34" class="node">
<title>nodo33</title>
<polygon fill="none" stroke="black" points="113.74,-2412 38.74,-2412 38.74,-2376 113.74,-2376 113.74,-2412"/>
<text text-anchor="middle" x="76.24" y="-2390.3" font-family="Times New Roman,serif" font-size="14.00">asignacion</text>
</g>
<!-- nodo32&#45;&gt;nodo33 -->
<g id="edge33" class="edge">
<title>nodo32&#45;&gt;nodo33</title>
<path fill="none" stroke="black" d="M76.24,-2447.7C76.24,-2439.98 76.24,-2430.71 76.24,-2422.11"/>
<polygon fill="black" stroke="black" points="79.74,-2422.1 76.24,-2412.1 72.74,-2422.1 79.74,-2422.1"/>
</g>
<!-- nodo34 -->
<g id="node35" class="node">
<title>nodo34</title>
<polygon fill="none" stroke="black" points="113.74,-2340 38.74,-2340 38.74,-2304 113.74,-2304 113.74,-2340"/>
<text text-anchor="middle" x="76.24" y="-2318.3" font-family="Times New Roman,serif" font-size="14.00">asignacion</text>
</g>
<!-- nodo33&#45;&gt;nodo34 -->
<g id="edge34" class="edge">
<title>nodo33&#45;&gt;nodo34</title>
<path fill="none" stroke="black" d="M76.24,-2375.7C76.24,-2367.98 76.24,-2358.71 76.24,-2350.11"/>
<polygon fill="black" stroke="black" points="79.74,-2350.1 76.24,-2340.1 72.74,-2350.1 79.74,-2350.1"/>
</g>
<!-- nodo35 -->
<g id="node36" class="node">
<title>nodo35</title>
<polygon fill="none" stroke="black" points="107.74,-2268 104.74,-2272 83.74,-2272 80.74,-2268 44.74,-2268 44.74,-2232 107.74,-2232 107.74,-2268"/>
<text text-anchor="middle" x="76.24" y="-2246.3" font-family="Times New Roman,serif" font-size="14.00">imprimir</text>
</g>
<!-- nodo34&#45;&gt;nodo35 -->
<g id="edge35" class="edge">
<title>nodo34&#45;&gt;nodo35</title>
<path fill="none" stroke="black" d="M76.24,-2303.7C76.24,-2295.98 76.24,-2286.71 76.24,-2278.11"/>
<polygon fill="black" stroke="black" points="79.74,-2278.1 76.24,-2268.1 72.74,-2278.1 79.74,-2278.1"/>
</g>
<!-- nodo36 -->
<g id="node37" class="node">
<title>nodo36</title>
<polygon fill="none" stroke="black" points="107.74,-2196 104.74,-2200 83.74,-2200 80.74,-2196 44.74,-2196 44.74,-2160 107.74,-2160 107.74,-2196"/>
<text text-anchor="middle" x="76.24" y="-2174.3" font-family="Times New Roman,serif" font-size="14.00">imprimir</text>
</g>
<!-- nodo35&#45;&gt;nodo36 -->
<g id="edge36" class="edge">
<title>nodo35&#45;&gt;nodo36</title>
<path fill="none" stroke="black" d="M76.24,-2231.7C76.24,-2223.98 76.24,-2214.71 76.24,-2206.11"/>
<polygon fill="black" stroke="black" points="79.74,-2206.1 76.24,-2196.1 72.74,-2206.1 79.74,-2206.1"/>
</g>
<!-- nodo37 -->
<g id="node38" class="node">
<title>nodo37</title>
<polygon fill="none" stroke="black" points="107.74,-2124 104.74,-2128 83.74,-2128 80.74,-2124 44.74,-2124 44.74,-2088 107.74,-2088 107.74,-2124"/>
<text text-anchor="middle" x="76.24" y="-2102.3" font-family="Times New Roman,serif" font-size="14.00">imprimir</text>
</g>
<!-- nodo36&#45;&gt;nodo37 -->
<g id="edge37" class="edge">
<title>nodo36&#45;&gt;nodo37</title>
<path fill="none" stroke="black" d="M76.24,-2159.7C76.24,-2151.98 76.24,-2142.71 76.24,-2134.11"/>
<polygon fill="black" stroke="black" points="79.74,-2134.1 76.24,-2124.1 72.74,-2134.1 79.74,-2134.1"/>
</g>
<!-- nodo38 -->
<g id="node39" class="node">
<title>nodo38</title>
<polygon fill="none" stroke="black" points="107.74,-2052 104.74,-2056 83.74,-2056 80.74,-2052 44.74,-2052 44.74,-2016 107.74,-2016 107.74,-2052"/>
<text text-anchor="middle" x="76.24" y="-2030.3" font-family="Times New Roman,serif" font-size="14.00">imprimir</text>
</g>
<!-- nodo37&#45;&gt;nodo38 -->
<g id="edge38" class="edge">
<title>nodo37&#45;&gt;nodo38</title>
<path fill="none" stroke="black" d="M76.24,-2087.7C76.24,-2079.98 76.24,-2070.71 76.24,-2062.11"/>
<polygon fill="black" stroke="black" points="79.74,-2062.1 76.24,-2052.1 72.74,-2062.1 79.74,-2062.1"/>
</g>
<!-- nodo39 -->
<g id="node40" class="node">
<title>nodo39</title>
<polygon fill="none" stroke="black" points="107.74,-1980 104.74,-1984 83.74,-1984 80.74,-1980 44.74,-1980 44.74,-1944 107.74,-1944 107.74,-1980"/>
<text text-anchor="middle" x="76.24" y="-1958.3" font-family="Times New Roman,serif" font-size="14.00">imprimir</text>
</g>
<!-- nodo38&#45;&gt;nodo39 -->
<g id="edge39" class="edge">
<title>nodo38&#45;&gt;nodo39</title>
<path fill="none" stroke="black" d="M76.24,-2015.7C76.24,-2007.98 76.24,-1998.71 76.24,-1990.11"/>
<polygon fill="black" stroke="black" points="79.74,-1990.1 76.24,-1980.1 72.74,-1990.1 79.74,-1990.1"/>
</g>
<!-- nodo40 -->
<g id="node41" class="node">
<title>nodo40</title>
<polygon fill="none" stroke="black" points="107.74,-1908 104.74,-1912 83.74,-1912 80.74,-1908 44.74,-1908 44.74,-1872 107.74,-1872 107.74,-1908"/>
<text text-anchor="middle" x="76.24" y="-1886.3" font-family="Times New Roman,serif" font-size="14.00">imprimir</text>
</g>
<!-- nodo39&#45;&gt;nodo40 -->
<g id="edge40" class="edge">
<title>nodo39&#45;&gt;nodo40</title>
<path fill="none" stroke="black" d="M76.24,-1943.7C76.24,-1935.98 76.24,-1926.71 76.24,-1918.11"/>
<polygon fill="black" stroke="black" points="79.74,-1918.1 76.24,-1908.1 72.74,-1918.1 79.74,-1918.1"/>
</g>
<!-- nodo41 -->
<g id="node42" class="node">
<title>nodo41</title>
<polygon fill="none" stroke="black" points="107.74,-1836 104.74,-1840 83.74,-1840 80.74,-1836 44.74,-1836 44.74,-1800 107.74,-1800 107.74,-1836"/>
<text text-anchor="middle" x="76.24" y="-1814.3" font-family="Times New Roman,serif" font-size="14.00">imprimir</text>
</g>
<!-- nodo40&#45;&gt;nodo41 -->
<g id="edge41" class="edge">
<title>nodo40&#45;&gt;nodo41</title>
<path fill="none" stroke="black" d="M76.24,-1871.7C76.24,-1863.98 76.24,-1854.71 76.24,-1846.11"/>
<polygon fill="black" stroke="black" points="79.74,-1846.1 76.24,-1836.1 72.74,-1846.1 79.74,-1846.1"/>
</g>
<!-- nodo42 -->
<g id="node43" class="node">
<title>nodo42</title>
<polygon fill="none" stroke="black" points="107.74,-1764 104.74,-1768 83.74,-1768 80.74,-1764 44.74,-1764 44.74,-1728 107.74,-1728 107.74,-1764"/>
<text text-anchor="middle" x="76.24" y="-1742.3" font-family="Times New Roman,serif" font-size="14.00">imprimir</text>
</g>
<!-- nodo41&#45;&gt;nodo42 -->
<g id="edge42" class="edge">
<title>nodo41&#45;&gt;nodo42</title>
<path fill="none" stroke="black" d="M76.24,-1799.7C76.24,-1791.98 76.24,-1782.71 76.24,-1774.11"/>
<polygon fill="black" stroke="black" points="79.74,-1774.1 76.24,-1764.1 72.74,-1774.1 79.74,-1774.1"/>
</g>
<!-- nodo43 -->
<g id="node44" class="node">
<title>nodo43</title>
<polygon fill="none" stroke="black" points="107.74,-1692 104.74,-1696 83.74,-1696 80.74,-1692 44.74,-1692 44.74,-1656 107.74,-1656 107.74,-1692"/>
<text text-anchor="middle" x="76.24" y="-1670.3" font-family="Times New Roman,serif" font-size="14.00">imprimir</text>
</g>
<!-- nodo42&#45;&gt;nodo43 -->
<g id="edge43" class="edge">
<title>nodo42&#45;&gt;nodo43</title>
<path fill="none" stroke="black" d="M76.24,-1727.7C76.24,-1719.98 76.24,-1710.71 76.24,-1702.11"/>
<polygon fill="black" stroke="black" points="79.74,-1702.1 76.24,-1692.1 72.74,-1702.1 79.74,-1702.1"/>
</g>
<!-- nodo44 -->
<g id="node45" class="node">
<title>nodo44</title>
<polygon fill="none" stroke="black" points="107.74,-1620 104.74,-1624 83.74,-1624 80.74,-1620 44.74,-1620 44.74,-1584 107.74,-1584 107.74,-1620"/>
<text text-anchor="middle" x="76.24" y="-1598.3" font-family="Times New Roman,serif" font-size="14.00">imprimir</text>
</g>
<!-- nodo43&#45;&gt;nodo44 -->
<g id="edge44" class="edge">
<title>nodo43&#45;&gt;nodo44</title>
<path fill="none" stroke="black" d="M76.24,-1655.7C76.24,-1647.98 76.24,-1638.71 76.24,-1630.11"/>
<polygon fill="black" stroke="black" points="79.74,-1630.1 76.24,-1620.1 72.74,-1630.1 79.74,-1630.1"/>
</g>
<!-- nodo45 -->
<g id="node46" class="node">
<title>nodo45</title>
<polygon fill="none" stroke="black" points="107.74,-1548 104.74,-1552 83.74,-1552 80.74,-1548 44.74,-1548 44.74,-1512 107.74,-1512 107.74,-1548"/>
<text text-anchor="middle" x="76.24" y="-1526.3" font-family="Times New Roman,serif" font-size="14.00">imprimir</text>
</g>
<!-- nodo44&#45;&gt;nodo45 -->
<g id="edge45" class="edge">
<title>nodo44&#45;&gt;nodo45</title>
<path fill="none" stroke="black" d="M76.24,-1583.7C76.24,-1575.98 76.24,-1566.71 76.24,-1558.11"/>
<polygon fill="black" stroke="black" points="79.74,-1558.1 76.24,-1548.1 72.74,-1558.1 79.74,-1558.1"/>
</g>
<!-- nodo46 -->
<g id="node47" class="node">
<title>nodo46</title>
<polygon fill="none" stroke="black" points="113.74,-1476 38.74,-1476 38.74,-1440 113.74,-1440 113.74,-1476"/>
<text text-anchor="middle" x="76.24" y="-1454.3" font-family="Times New Roman,serif" font-size="14.00">asignacion</text>
</g>
<!-- nodo45&#45;&gt;nodo46 -->
<g id="edge46" class="edge">
<title>nodo45&#45;&gt;nodo46</title>
<path fill="none" stroke="black" d="M76.24,-1511.7C76.24,-1503.98 76.24,-1494.71 76.24,-1486.11"/>
<polygon fill="black" stroke="black" points="79.74,-1486.1 76.24,-1476.1 72.74,-1486.1 79.74,-1486.1"/>
</g>
<!-- nodo47 -->
<g id="node48" class="node">
<title>nodo47</title>
<polygon fill="none" stroke="black" points="76.24,-1404 49.24,-1386 76.24,-1368 103.24,-1386 76.24,-1404"/>
<text text-anchor="middle" x="76.24" y="-1382.3" font-family="Times New Roman,serif" font-size="14.00">si</text>
</g>
<!-- nodo46&#45;&gt;nodo47 -->
<g id="edge47" class="edge">
<title>nodo46&#45;&gt;nodo47</title>
<path fill="none" stroke="black" d="M76.24,-1439.7C76.24,-1431.98 76.24,-1422.71 76.24,-1414.11"/>
<polygon fill="black" stroke="black" points="79.74,-1414.1 76.24,-1404.1 72.74,-1414.1 79.74,-1414.1"/>
</g>
<!-- nodo48 -->
<g id="node49" class="node">
<title>nodo48</title>
<polygon fill="none" stroke="black" points="107.74,-1332 104.74,-1336 83.74,-1336 80.74,-1332 44.74,-1332 44.74,-1296 107.74,-1296 107.74,-1332"/>
<text text-anchor="middle" x="76.24" y="-1310.3" font-family="Times New Roman,serif" font-size="14.00">imprimir</text>
</g>
<!-- nodo47&#45;&gt;nodo48 -->
<g id="edge48" class="edge">
<title>nodo47&#45;&gt;nodo48</title>
<path fill="none" stroke="black" d="M76.24,-1367.7C76.24,-1359.98 76.24,-1350.71 76.24,-1342.11"/>
<polygon fill="black" stroke="black" points="79.74,-1342.1 76.24,-1332.1 72.74,-1342.1 79.74,-1342.1"/>
</g>
<!-- nodo49 -->
<g id="node50" class="node">
<title>nodo49</title>
<polygon fill="none" stroke="black" points="107.74,-1260 104.74,-1264 83.74,-1264 80.74,-1260 44.74,-1260 44.74,-1224 107.74,-1224 107.74,-1260"/>
<text text-anchor="middle" x="76.24" y="-1238.3" font-family="Times New Roman,serif" font-size="14.00">imprimir</text>
</g>
<!-- nodo48&#45;&gt;nodo49 -->
<g id="edge49" class="edge">
<title>nodo48&#45;&gt;nodo49</title>
<path fill="none" stroke="black" d="M76.24,-1295.7C76.24,-1287.98 76.24,-1278.71 76.24,-1270.11"/>
<polygon fill="black" stroke="black" points="79.74,-1270.1 76.24,-1260.1 72.74,-1270.1 79.74,-1270.1"/>
</g>
<!-- nodo50 -->
<g id="node51" class="node">
<title>nodo50</title>
<polygon fill="none" stroke="black" points="76.24,-1188 49.24,-1170 76.24,-1152 103.24,-1170 76.24,-1188"/>
<text text-anchor="middle" x="76.24" y="-1166.3" font-family="Times New Roman,serif" font-size="14.00">si</text>
</g>
<!-- nodo49&#45;&gt;nodo50 -->
<g id="edge50" class="edge">
<title>nodo49&#45;&gt;nodo50</title>
<path fill="none" stroke="black" d="M76.24,-1223.7C76.24,-1215.98 76.24,-1206.71 76.24,-1198.11"/>
<polygon fill="black" stroke="black" points="79.74,-1198.1 76.24,-1188.1 72.74,-1198.1 79.74,-1198.1"/>
</g>
<!-- nodo51 -->
<g id="node52" class="node">
<title>nodo51</title>
<polygon fill="none" stroke="black" points="107.74,-1116 104.74,-1120 83.74,-1120 80.74,-1116 44.74,-1116 44.74,-1080 107.74,-1080 107.74,-1116"/>
<text text-anchor="middle" x="76.24" y="-1094.3" font-family="Times New Roman,serif" font-size="14.00">imprimir</text>
</g>
<!-- nodo50&#45;&gt;nodo51 -->
<g id="edge51" class="edge">
<title>nodo50&#45;&gt;nodo51</title>
<path fill="none" stroke="black" d="M76.24,-1151.7C76.24,-1143.98 76.24,-1134.71 76.24,-1126.11"/>
<polygon fill="black" stroke="black" points="79.74,-1126.1 76.24,-1116.1 72.74,-1126.1 79.74,-1126.1"/>
</g>
<!-- nodo52 -->
<g id="node53" class="node">
<title>nodo52</title>
<polygon fill="none" stroke="black" points="107.74,-1044 104.74,-1048 83.74,-1048 80.74,-1044 44.74,-1044 44.74,-1008 107.74,-1008 107.74,-1044"/>
<text text-anchor="middle" x="76.24" y="-1022.3" font-family="Times New Roman,serif" font-size="14.00">imprimir</text>
</g>
<!-- nodo51&#45;&gt;nodo52 -->
<g id="edge52" class="edge">
<title>nodo51&#45;&gt;nodo52</title>
<path fill="none" stroke="black" d="M76.24,-1079.7C76.24,-1071.98 76.24,-1062.71 76.24,-1054.11"/>
<polygon fill="black" stroke="black" points="79.74,-1054.1 76.24,-1044.1 72.74,-1054.1 79.74,-1054.1"/>
</g>
<!-- nodo53 -->
<g id="node54" class="node">
<title>nodo53</title>
<polygon fill="none" stroke="black" points="107.74,-972 104.74,-976 83.74,-976 80.74,-972 44.74,-972 44.74,-936 107.74,-936 107.74,-972"/>
<text text-anchor="middle" x="76.24" y="-950.3" font-family="Times New Roman,serif" font-size="14.00">imprimir</text>
</g>
<!-- nodo52&#45;&gt;nodo53 -->
<g id="edge53" class="edge">
<title>nodo52&#45;&gt;nodo53</title>
<path fill="none" stroke="black" d="M76.24,-1007.7C76.24,-999.98 76.24,-990.71 76.24,-982.11"/>
<polygon fill="black" stroke="black" points="79.74,-982.1 76.24,-972.1 72.74,-982.1 79.74,-982.1"/>
</g>
<!-- nodo54 -->
<g id="node55" class="node">
<title>nodo54</title>
<polygon fill="none" stroke="black" points="107.74,-900 104.74,-904 83.74,-904 80.74,-900 44.74,-900 44.74,-864 107.74,-864 107.74,-900"/>
<text text-anchor="middle" x="76.24" y="-878.3" font-family="Times New Roman,serif" font-size="14.00">imprimir</text>
</g>
<!-- nodo53&#45;&gt;nodo54 -->
<g id="edge54" class="edge">
<title>nodo53&#45;&gt;nodo54</title>
<path fill="none" stroke="black" d="M76.24,-935.7C76.24,-927.98 76.24,-918.71 76.24,-910.11"/>
<polygon fill="black" stroke="black" points="79.74,-910.1 76.24,-900.1 72.74,-910.1 79.74,-910.1"/>
</g>
<!-- nodo55 -->
<g id="node56" class="node">
<title>nodo55</title>
<polygon fill="none" stroke="black" points="76.24,-828 49.24,-810 76.24,-792 103.24,-810 76.24,-828"/>
<text text-anchor="middle" x="76.24" y="-806.3" font-family="Times New Roman,serif" font-size="14.00">si</text>
</g>
<!-- nodo54&#45;&gt;nodo55 -->
<g id="edge55" class="edge">
<title>nodo54&#45;&gt;nodo55</title>
<path fill="none" stroke="black" d="M76.24,-863.7C76.24,-855.98 76.24,-846.71 76.24,-838.11"/>
<polygon fill="black" stroke="black" points="79.74,-838.1 76.24,-828.1 72.74,-838.1 79.74,-838.1"/>
</g>
<!-- nodo56 -->
<g id="node57" class="node">
<title>nodo56</title>
<polygon fill="none" stroke="black" points="152.71,-756 31.06,-756 -0.24,-720 121.41,-720 152.71,-756"/>
<text text-anchor="middle" x="76.24" y="-734.3" font-family="Times New Roman,serif" font-size="14.00">declaracion</text>
</g>
<!-- nodo55&#45;&gt;nodo56 -->
<g id="edge56" class="edge">
<title>nodo55&#45;&gt;nodo56</title>
<path fill="none" stroke="black" d="M76.24,-791.7C76.24,-783.98 76.24,-774.71 76.24,-766.11"/>
<polygon fill="black" stroke="black" points="79.74,-766.1 76.24,-756.1 72.74,-766.1 79.74,-766.1"/>
</g>
<!-- nodo57 -->
<g id="node58" class="node">
<title>nodo57</title>
<polygon fill="none" stroke="black" points="107.74,-684 104.74,-688 83.74,-688 80.74,-684 44.74,-684 44.74,-648 107.74,-648 107.74,-684"/>
<text text-anchor="middle" x="76.24" y="-662.3" font-family="Times New Roman,serif" font-size="14.00">imprimir</text>
</g>
<!-- nodo56&#45;&gt;nodo57 -->
<g id="edge57" class="edge">
<title>nodo56&#45;&gt;nodo57</title>
<path fill="none" stroke="black" d="M76.24,-719.7C76.24,-711.98 76.24,-702.71 76.24,-694.11"/>
<polygon fill="black" stroke="black" points="79.74,-694.1 76.24,-684.1 72.74,-694.1 79.74,-694.1"/>
</g>
<!-- nodo58 -->
<g id="node59" class="node">
<title>nodo58</title>
<polygon fill="none" stroke="black" points="76.24,-612 31.16,-594 76.24,-576 121.31,-594 76.24,-612"/>
<text text-anchor="middle" x="76.24" y="-590.3" font-family="Times New Roman,serif" font-size="14.00">segun</text>
</g>
<!-- nodo57&#45;&gt;nodo58 -->
<g id="edge58" class="edge">
<title>nodo57&#45;&gt;nodo58</title>
<path fill="none" stroke="black" d="M76.24,-647.7C76.24,-639.98 76.24,-630.71 76.24,-622.11"/>
<polygon fill="black" stroke="black" points="79.74,-622.1 76.24,-612.1 72.74,-622.1 79.74,-622.1"/>
</g>
<!-- nodo59 -->
<g id="node60" class="node">
<title>nodo59</title>
<polygon fill="none" stroke="black" points="76.24,-540 49.24,-522 76.24,-504 103.24,-522 76.24,-540"/>
<text text-anchor="middle" x="76.24" y="-518.3" font-family="Times New Roman,serif" font-size="14.00">si</text>
</g>
<!-- nodo58&#45;&gt;nodo59 -->
<g id="edge59" class="edge">
<title>nodo58&#45;&gt;nodo59</title>
<path fill="none" stroke="black" d="M76.24,-575.7C76.24,-567.98 76.24,-558.71 76.24,-550.11"/>
<polygon fill="black" stroke="black" points="79.74,-550.1 76.24,-540.1 72.74,-550.1 79.74,-550.1"/>
</g>
<!-- nodo60 -->
<g id="node61" class="node">
<title>nodo60</title>
<polygon fill="none" stroke="black" points="152.71,-468 31.06,-468 -0.24,-432 121.41,-432 152.71,-468"/>
<text text-anchor="middle" x="76.24" y="-446.3" font-family="Times New Roman,serif" font-size="14.00">declaracion</text>
</g>
<!-- nodo59&#45;&gt;nodo60 -->
<g id="edge60" class="edge">
<title>nodo59&#45;&gt;nodo60</title>
<path fill="none" stroke="black" d="M76.24,-503.7C76.24,-495.98 76.24,-486.71 76.24,-478.11"/>
<polygon fill="black" stroke="black" points="79.74,-478.1 76.24,-468.1 72.74,-478.1 79.74,-478.1"/>
</g>
<!-- nodo61 -->
<g id="node62" class="node">
<title>nodo61</title>
<polygon fill="none" stroke="black" points="152.71,-396 31.06,-396 -0.24,-360 121.41,-360 152.71,-396"/>
<text text-anchor="middle" x="76.24" y="-374.3" font-family="Times New Roman,serif" font-size="14.00">declaracion</text>
</g>
<!-- nodo60&#45;&gt;nodo61 -->
<g id="edge61" class="edge">
<title>nodo60&#45;&gt;nodo61</title>
<path fill="none" stroke="black" d="M76.24,-431.7C76.24,-423.98 76.24,-414.71 76.24,-406.11"/>
<polygon fill="black" stroke="black" points="79.74,-406.1 76.24,-396.1 72.74,-406.1 79.74,-406.1"/>
</g>
<!-- nodo62 -->
<g id="node63" class="node">
<title>nodo62</title>
<polygon fill="none" stroke="black" points="113.74,-324 38.74,-324 38.74,-288 113.74,-288 113.74,-324"/>
<text text-anchor="middle" x="76.24" y="-302.3" font-family="Times New Roman,serif" font-size="14.00">asignacion</text>
</g>
<!-- nodo61&#45;&gt;nodo62 -->
<g id="edge62" class="edge">
<title>nodo61&#45;&gt;nodo62</title>
<path fill="none" stroke="black" d="M76.24,-359.7C76.24,-351.98 76.24,-342.71 76.24,-334.11"/>
<polygon fill="black" stroke="black" points="79.74,-334.1 76.24,-324.1 72.74,-334.1 79.74,-334.1"/>
</g>
<!-- nodo63 -->
<g id="node64" class="node">
<title>nodo63</title>
<polygon fill="none" stroke="black" points="107.74,-252 104.74,-256 83.74,-256 80.74,-252 44.74,-252 44.74,-216 107.74,-216 107.74,-252"/>
<text text-anchor="middle" x="76.24" y="-230.3" font-family="Times New Roman,serif" font-size="14.00">imprimir</text>
</g>
<!-- nodo62&#45;&gt;nodo63 -->
<g id="edge63" class="edge">
<title>nodo62&#45;&gt;nodo63</title>
<path fill="none" stroke="black" d="M76.24,-287.7C76.24,-279.98 76.24,-270.71 76.24,-262.11"/>
<polygon fill="black" stroke="black" points="79.74,-262.1 76.24,-252.1 72.74,-262.1 79.74,-262.1"/>
</g>
<!-- nodo64 -->
<g id="node65" class="node">
<title>nodo64</title>
<polygon fill="none" stroke="black" points="107.74,-180 104.74,-184 83.74,-184 80.74,-180 44.74,-180 44.74,-144 107.74,-144 107.74,-180"/>
<text text-anchor="middle" x="76.24" y="-158.3" font-family="Times New Roman,serif" font-size="14.00">imprimir</text>
</g>
<!-- nodo63&#45;&gt;nodo64 -->
<g id="edge64" class="edge">
<title>nodo63&#45;&gt;nodo64</title>
<path fill="none" stroke="black" d="M76.24,-215.7C76.24,-207.98 76.24,-198.71 76.24,-190.11"/>
<polygon fill="black" stroke="black" points="79.74,-190.1 76.24,-180.1 72.74,-190.1 79.74,-190.1"/>
</g>
<!-- nodo65 -->
<g id="node66" class="node">
<title>nodo65</title>
<polygon fill="none" stroke="black" points="152.71,-108 31.06,-108 -0.24,-72 121.41,-72 152.71,-108"/>
<text text-anchor="middle" x="76.24" y="-86.3" font-family="Times New Roman,serif" font-size="14.00">declaracion</text>
</g>
<!-- nodo64&#45;&gt;nodo65 -->
<g id="edge65" class="edge">
<title>nodo64&#45;&gt;nodo65</title>
<path fill="none" stroke="black" d="M76.24,-143.7C76.24,-135.98 76.24,-126.71 76.24,-118.11"/>
<polygon fill="black" stroke="black" points="79.74,-118.1 76.24,-108.1 72.74,-118.1 79.74,-118.1"/>
</g>
<!-- nodo66 -->
<g id="node67" class="node">
<title>nodo66</title>
<ellipse fill="none" stroke="black" cx="76.24" cy="-18" rx="27" ry="18"/>
<text text-anchor="middle" x="76.24" y="-14.3" font-family="Times New Roman,serif" font-size="14.00">FIN</text>
</g>
<!-- nodo65&#45;&gt;nodo66 -->
<g id="edge66" class="edge">
<title>nodo65&#45;&gt;nodo66</title>
<path fill="none" stroke="black" d="M76.24,-71.7C76.24,-63.98 76.24,-54.71 76.24,-46.11"/>
<polygon fill="black" stroke="black" points="79.74,-46.1 76.24,-36.1 72.74,-46.1 79.74,-46.1"/>
</g>
</g>
</svg>
